<svg width="327" height="356" viewBox="0 0 327 356" fill="none" xmlns="http://www.w3.org/2000/svg">
<path opacity="0.1" d="M0 74.0057L33.4192 17.0174L52.9955 -10.7964L32.7728 44.8575L65.6558 28.8196L32.7618 98.5188L66.5814 77.5872L34.9288 146.905L65.3988 128.354L33.7131 199.31L64.1904 180.35L32.5598 248.849L65.0681 231.164L35.1088 298.473L65.1306 281.55L33.9225 349.65L65.2151 331.118L0.00367643 427.927L38.216 359.58L0.984298 385.758L39.417 307.994L2.28818 329.669L40.596 257.227L3.53332 276.036L41.775 206.46L4.72332 224.859L42.965 155.283L4.23113 175.282L42.4692 105.706L2.51226 125.268L42.0431 53.2636L0 74.0057Z" fill="#F8F8F8"/>
<path opacity="0.1" d="M57.0693 63.305L90.4886 6.31671L110.065 -21.4971L89.8422 34.1568L122.725 18.119L89.8311 87.8181L123.651 66.8866L91.9982 136.205L122.468 117.654L90.7824 188.609L121.26 169.649L89.6291 238.148L122.137 220.464L92.1781 287.772L122.2 270.85L90.9918 338.949L122.284 320.417L57.073 417.227L95.2853 348.879L58.0536 375.057L96.4864 297.293L59.3575 318.968L97.6653 246.526L60.6027 265.335L98.8443 195.759L61.7927 214.158L100.034 144.582L61.3005 164.582L99.5385 95.0055L59.5816 114.567L99.1124 42.5629L57.0693 63.305Z" fill="#F8F8F8"/>
<path opacity="0.1" d="M114.14 52.6044L147.559 -4.38398L167.135 -32.1978L146.912 23.4561L179.795 7.41827L146.901 77.1174L180.721 56.1859L149.068 125.504L179.538 106.953L147.853 177.909L178.33 158.948L146.699 227.447L179.208 209.763L149.248 277.072L179.27 260.149L148.062 328.248L179.355 309.716L114.143 406.526L152.356 338.178L115.124 364.357L153.557 286.593L116.428 308.267L154.736 235.825L117.673 254.634L155.915 185.058L118.863 203.458L157.105 133.882L118.371 153.881L156.609 84.3048L116.652 103.866L156.183 31.8622L114.14 52.6044Z" fill="#F8F8F8"/>
<path opacity="0.1" d="M171.209 41.9039L204.628 -15.0844L224.205 -42.8982L203.982 12.7557L236.865 -3.28217L203.971 66.417L237.79 45.4854L206.138 114.803L236.608 96.2525L204.922 167.208L235.399 148.248L203.769 216.747L236.277 199.062L206.318 266.371L236.34 249.449L205.131 317.548L236.424 299.016L171.213 395.826L209.425 327.478L172.193 353.656L210.626 275.892L173.497 297.567L211.805 225.125L174.742 243.934L212.984 174.358L175.932 192.757L214.174 123.181L175.44 143.18L213.678 73.6043L173.721 93.1658L213.252 21.1618L171.209 41.9039Z" fill="#F8F8F8"/>
<path opacity="0.1" d="M228.279 31.2032L261.699 -25.7851L281.275 -53.5989L261.052 2.055L293.935 -13.9829L261.041 55.7163L294.861 34.7848L263.208 104.103L293.678 85.5518L261.992 156.508L292.47 137.547L260.839 206.046L293.347 188.362L263.388 255.671L293.41 238.748L262.202 306.847L293.494 288.315L228.283 385.125L266.495 316.777L229.264 342.956L267.696 265.191L230.567 286.866L268.875 214.424L231.813 233.233L270.054 163.657L233.003 182.056L271.244 112.48L232.51 132.48L270.748 62.9037L230.792 82.4651L270.322 10.4611L228.279 31.2032Z" fill="#F8F8F8"/>
<path opacity="0.1" d="M285.349 20.5028L318.768 -36.4855L338.344 -64.2993L318.121 -8.64544L351.004 -24.6833L318.11 45.0158L351.93 24.0843L320.277 93.4023L350.747 74.8513L319.062 145.807L349.539 126.847L317.908 195.346L350.417 177.661L320.457 244.97L350.479 228.047L319.271 296.147L350.564 277.615L285.352 374.425L323.565 306.077L286.333 332.255L324.766 254.491L287.637 276.166L325.945 203.724L288.882 222.533L327.124 152.957L290.072 171.356L328.314 101.78L289.58 121.779L327.818 52.2032L287.861 71.7647L327.392 -0.239342L285.349 20.5028Z" fill="#F8F8F8"/>
</svg>
