<svg width="931" height="324" viewBox="0 0 931 324" fill="none" xmlns="http://www.w3.org/2000/svg">
<mask id="mask0_850_21148" style="mask-type:luminance" maskUnits="userSpaceOnUse" x="-89" y="0" width="1244" height="324">
<path d="M1154.56 0H-89V324H1154.56V0Z" fill="white"/>
</mask>
<g mask="url(#mask0_850_21148)">
<path d="M30.9023 20.3064L73.5079 -52.6743L98.4624 -88.2932L72.6829 -17.0217L114.6 -37.56L72.6674 51.6982L115.779 24.8927L75.4303 113.663L114.275 89.9063L73.8782 180.774L112.734 156.493L72.4104 244.215L113.852 221.567L75.6616 307.764L113.933 286.093L74.146 373.302L114.038 349.569L30.9094 473.546L79.6222 386.018L32.1586 419.543L81.1504 319.957L33.8202 347.714L82.6543 254.943L35.4088 279.03L84.1582 189.93L36.9249 213.492L85.6738 124.392L36.2952 150.003L85.0445 60.9027L34.1049 85.9532L84.4995 -6.2567L30.9023 20.3064Z" fill="url(#paint0_linear_850_21148)"/>
<path d="M106.45 2.84L149.056 -70.1408L174.011 -105.76L148.231 -34.4881L190.148 -55.0261L148.215 34.2319L191.326 7.42627L150.979 96.1966L189.823 72.4398L149.426 163.307L188.283 139.026L147.959 226.748L189.4 204.1L151.21 290.298L189.481 268.626L149.694 355.835L189.587 332.103L106.458 456.08L155.17 368.552L107.707 402.077L156.698 302.49L109.369 330.247L158.202 237.477L110.957 261.564L159.706 172.463L112.473 196.026L161.222 106.925L111.843 132.537L160.592 43.4362L109.653 68.4872L160.047 -23.7231L106.45 2.84Z" fill="url(#paint1_linear_850_21148)"/>
<path d="M-41.7256 30.2923L0.87994 -42.6884L25.8345 -78.3074L0.0549622 -7.0358L41.9722 -27.5741L0.0390434 61.684L43.1507 34.8786L2.80241 123.649L41.6468 99.8922L1.25029 190.76L40.1064 166.478L-0.217537 254.2L41.224 231.553L3.0337 317.75L41.305 296.078L1.51764 383.288L41.4104 359.555L-41.7186 483.533L6.99427 396.005L-40.4694 429.529L8.52204 329.942L-38.8077 357.7L10.0259 264.929L-37.2191 289.016L11.5298 199.915L-35.703 223.478L13.0459 134.378L-36.3328 159.989L12.4161 70.8885L-38.523 95.9391L11.8716 3.72921L-41.7256 30.2923Z" fill="url(#paint2_linear_850_21148)"/>
<path d="M178.177 -12.659L220.783 -85.6396L245.737 -121.259L219.958 -49.987L261.875 -70.5254L219.942 18.7329L263.054 -8.07276L222.705 80.6974L261.55 56.941L221.153 147.808L260.009 123.527L219.685 211.249L261.127 188.602L222.937 274.799L261.208 253.127L221.42 340.337L261.313 316.604L178.184 440.581L226.897 353.053L179.433 386.578L228.425 286.991L181.095 314.749L229.929 221.978L182.684 246.065L231.433 156.964L184.2 180.527L232.949 91.4264L183.57 117.038L232.319 27.9371L181.38 52.9879L231.774 -39.2221L178.177 -12.659Z" fill="url(#paint3_linear_850_21148)"/>
<path d="M243.027 56.5118L285.633 -16.4686L310.588 -52.0876L284.808 19.1839L326.726 -1.35434L284.792 87.9038L327.904 61.0984L287.556 149.869L326.4 126.112L286.003 216.979L324.86 192.698L284.536 280.42L325.977 257.772L287.787 343.97L326.058 322.298L286.271 409.508L326.164 385.775L243.035 509.752L291.747 422.225L244.284 455.749L293.275 356.162L245.946 383.919L294.779 291.149L247.534 315.236L296.283 226.135L249.05 249.698L297.799 160.597L248.421 186.209L297.17 97.1083L246.23 122.159L296.625 29.9489L243.027 56.5118Z" fill="url(#paint4_linear_850_21148)"/>
<path d="M458.888 25.1357L501.495 -47.8447L526.45 -83.4641L500.671 -12.1924L542.585 -32.7307L500.652 56.5278L543.764 29.722L503.419 118.492L542.261 94.7354L501.864 185.603L540.721 161.322L500.399 249.044L541.84 226.396L503.648 312.594L541.92 290.922L502.131 378.132L542.023 354.398L458.897 478.378L507.609 390.848L460.147 424.373L509.136 324.786L461.805 352.543L510.639 259.772L463.397 283.86L512.146 194.759L464.914 218.322L513.659 129.221L464.281 154.832L513.031 65.7318L462.09 90.7828L512.483 -1.42738L458.888 25.1357Z" fill="url(#paint5_linear_850_21148)"/>
<path d="M678.791 -17.8149L721.398 -90.7956L746.353 -126.415L720.574 -55.143L762.493 -75.6814L720.56 13.577L763.668 -13.2286L723.322 75.5418L762.165 51.785L721.768 142.652L760.624 118.371L720.302 206.093L761.743 183.446L723.552 269.643L761.823 247.971L722.035 335.181L761.931 311.448L678.8 435.425L727.513 347.897L680.051 381.422L729.039 281.835L681.713 309.593L730.547 216.822L683.3 240.909L732.05 151.808L684.817 175.371L733.567 86.2704L684.185 111.882L732.935 22.7813L681.994 47.8319L732.391 -44.378L678.791 -17.8149Z" fill="url(#paint6_linear_850_21148)"/>
<path d="M318.574 39.044L361.18 -33.9367L386.133 -69.5559L360.355 1.71587L402.272 -18.8224L360.339 70.436L403.452 43.6302L363.103 132.4L401.944 108.644L361.55 199.512L400.409 175.23L360.083 262.952L401.523 240.304L363.334 326.502L401.607 304.83L361.818 392.04L401.71 368.307L318.581 492.284L367.294 404.756L319.831 438.281L368.822 338.694L321.492 366.451L370.326 273.68L323.081 297.768L371.83 208.667L324.597 232.23L373.346 143.129L323.968 168.741L372.716 79.64L321.777 104.691L372.171 12.4808L318.574 39.044Z" fill="url(#paint7_linear_850_21148)"/>
<path d="M534.434 7.66669L577.041 -65.3139L601.996 -100.933L576.216 -29.6614L618.135 -50.1997L576.202 39.0586L619.31 12.253L578.965 101.024L617.807 77.2667L577.41 168.134L616.267 143.853L575.945 231.574L617.386 208.927L579.194 295.124L617.466 273.453L577.677 360.662L617.573 336.93L534.443 460.907L583.155 373.379L535.693 406.903L584.682 307.317L537.355 335.074L586.189 242.303L538.942 266.39L587.692 177.29L540.459 200.853L589.209 111.752L539.827 137.364L588.577 48.263L537.641 73.3136L588.034 -18.8964L534.434 7.66669Z" fill="url(#paint8_linear_850_21148)"/>
<path d="M754.341 -35.2813L796.943 -108.262L821.899 -143.881L796.119 -72.6095L838.038 -93.1475L796.105 -3.88937L839.218 -30.695L798.867 58.0753L837.71 34.3185L797.313 125.186L836.17 100.905L795.847 188.627L837.289 165.979L799.097 252.177L837.368 230.505L797.585 317.715L837.476 293.982L754.346 417.959L803.058 330.431L755.596 363.956L804.589 264.369L757.258 292.126L806.092 199.355L758.845 223.442L807.595 134.342L760.362 157.905L809.112 68.8038L759.735 94.4153L808.48 5.31487L757.543 30.3657L807.937 -61.8445L754.341 -35.2813Z" fill="url(#paint9_linear_850_21148)"/>
<path d="M390.3 23.5492L432.907 -49.4314L457.862 -85.0503L432.083 -13.7789L474.001 -34.3171L432.069 54.9411L475.177 28.1355L434.831 116.906L473.674 93.1492L433.277 184.017L472.133 159.735L431.811 247.457L473.252 224.809L435.061 311.007L473.332 289.335L433.544 376.545L473.44 352.812L390.309 476.79L439.022 389.261L391.559 422.786L440.548 323.2L393.221 350.957L442.056 258.186L394.809 282.273L443.558 193.173L396.326 216.735L445.071 127.635L395.694 153.246L444.443 64.1452L393.502 89.1962L443.9 -3.01388L390.3 23.5492Z" fill="url(#paint10_linear_850_21148)"/>
<path d="M606.162 -7.82901L648.769 -80.8098L673.725 -116.429L647.945 -45.1571L689.859 -65.6956L647.926 23.5629L691.039 -3.24272L650.693 85.5277L689.536 61.7708L649.139 152.638L687.996 128.357L647.673 216.079L689.115 193.431L650.923 279.629L689.194 257.957L649.406 345.166L689.297 321.434L606.171 445.411L654.884 357.883L607.417 391.408L656.41 291.821L609.079 319.578L657.913 226.808L610.671 250.895L659.421 161.794L612.183 185.357L660.933 96.2562L611.556 121.868L660.306 32.7672L609.365 57.8182L659.758 -34.3921L606.162 -7.82901Z" fill="url(#paint11_linear_850_21148)"/>
<path d="M826.065 -50.7809L868.672 -123.761L893.628 -159.38L867.848 -88.1088L909.762 -108.647L867.83 -19.3889L910.942 -46.1945L870.597 42.5758L909.439 18.819L869.042 109.687L907.899 85.4053L867.577 173.127L909.018 150.48L870.826 236.677L909.097 215.005L869.309 302.215L909.2 278.482L826.075 402.459L874.787 314.931L827.325 348.456L876.313 248.869L828.982 276.627L877.816 183.856L830.574 207.943L879.324 118.842L832.091 142.405L880.836 53.3046L831.459 78.916L880.209 -10.1847L829.268 14.8662L879.666 -77.3438L826.065 -50.7809Z" fill="url(#paint12_linear_850_21148)"/>
<path d="M894.443 -48.2328L937.05 -121.214L962.001 -156.833L936.222 -85.5612L978.14 -106.1L936.208 -16.8411L979.32 -43.6467L938.97 45.1236L977.817 21.3668L937.42 112.234L976.277 87.953L935.95 175.675L977.391 153.027L939.204 239.225L977.475 217.553L937.687 304.762L977.578 281.03L894.448 405.007L943.16 317.479L895.698 351.004L944.691 251.417L897.36 279.174L946.194 186.404L898.948 210.491L947.697 121.39L900.465 144.953L949.214 55.8522L899.837 81.4636L948.587 -7.63686L897.646 17.414L948.039 -74.7962L894.443 -48.2328Z" fill="url(#paint13_linear_850_21148)"/>
</g>
<defs>
<linearGradient id="paint0_linear_850_21148" x1="127.775" y1="645.219" x2="-95.0507" y2="608.067" gradientUnits="userSpaceOnUse">
<stop stop-color="#6CACD2"/>
<stop offset="1" stop-color="#47A3C4" stop-opacity="0"/>
</linearGradient>
<linearGradient id="paint1_linear_850_21148" x1="203.323" y1="627.753" x2="-19.5028" y2="590.602" gradientUnits="userSpaceOnUse">
<stop stop-color="#6CACD2"/>
<stop offset="1" stop-color="#47A3C4" stop-opacity="0"/>
</linearGradient>
<linearGradient id="paint2_linear_850_21148" x1="55.1469" y1="655.206" x2="-167.679" y2="618.054" gradientUnits="userSpaceOnUse">
<stop stop-color="#6CACD2"/>
<stop offset="1" stop-color="#47A3C4" stop-opacity="0"/>
</linearGradient>
<linearGradient id="paint3_linear_850_21148" x1="275.05" y1="612.254" x2="52.2231" y2="575.102" gradientUnits="userSpaceOnUse">
<stop stop-color="#6CACD2"/>
<stop offset="1" stop-color="#47A3C4" stop-opacity="0"/>
</linearGradient>
<linearGradient id="paint4_linear_850_21148" x1="339.9" y1="681.426" x2="117.074" y2="644.274" gradientUnits="userSpaceOnUse">
<stop stop-color="#6CACD2"/>
<stop offset="1" stop-color="#47A3C4" stop-opacity="0"/>
</linearGradient>
<linearGradient id="paint5_linear_850_21148" x1="555.761" y1="650.052" x2="332.934" y2="612.899" gradientUnits="userSpaceOnUse">
<stop stop-color="#6CACD2"/>
<stop offset="1" stop-color="#47A3C4" stop-opacity="0"/>
</linearGradient>
<linearGradient id="paint6_linear_850_21148" x1="775.664" y1="607.098" x2="552.837" y2="569.946" gradientUnits="userSpaceOnUse">
<stop stop-color="#6CACD2"/>
<stop offset="1" stop-color="#47A3C4" stop-opacity="0"/>
</linearGradient>
<linearGradient id="paint7_linear_850_21148" x1="415.448" y1="663.957" x2="192.619" y2="626.803" gradientUnits="userSpaceOnUse">
<stop stop-color="#6CACD2"/>
<stop offset="1" stop-color="#47A3C4" stop-opacity="0"/>
</linearGradient>
<linearGradient id="paint8_linear_850_21148" x1="631.307" y1="632.58" x2="408.48" y2="595.427" gradientUnits="userSpaceOnUse">
<stop stop-color="#6CACD2"/>
<stop offset="1" stop-color="#47A3C4" stop-opacity="0"/>
</linearGradient>
<linearGradient id="paint9_linear_850_21148" x1="851.214" y1="589.632" x2="628.387" y2="552.48" gradientUnits="userSpaceOnUse">
<stop stop-color="#6CACD2"/>
<stop offset="1" stop-color="#47A3C4" stop-opacity="0"/>
</linearGradient>
<linearGradient id="paint10_linear_850_21148" x1="487.173" y1="648.464" x2="264.346" y2="611.312" gradientUnits="userSpaceOnUse">
<stop stop-color="#6CACD2"/>
<stop offset="1" stop-color="#47A3C4" stop-opacity="0"/>
</linearGradient>
<linearGradient id="paint11_linear_850_21148" x1="703.035" y1="617.085" x2="480.208" y2="579.932" gradientUnits="userSpaceOnUse">
<stop stop-color="#6CACD2"/>
<stop offset="1" stop-color="#47A3C4" stop-opacity="0"/>
</linearGradient>
<linearGradient id="paint12_linear_850_21148" x1="922.938" y1="574.132" x2="700.112" y2="536.98" gradientUnits="userSpaceOnUse">
<stop stop-color="#6CACD2"/>
<stop offset="1" stop-color="#47A3C4" stop-opacity="0"/>
</linearGradient>
<linearGradient id="paint13_linear_850_21148" x1="991.316" y1="576.68" x2="768.49" y2="539.528" gradientUnits="userSpaceOnUse">
<stop stop-color="#6CACD2"/>
<stop offset="1" stop-color="#47A3C4" stop-opacity="0"/>
</linearGradient>
</defs>
</svg>
