<svg width="12" height="12" viewBox="0 0 16 16" fill="none" xmlns="http://www.w3.org/2000/svg">
<path fill-rule="evenodd" clip-rule="evenodd" d="M7.99971 9.41429L13.6566 15.0711C14.0471 15.4617 14.6802 15.4617 15.0708 15.0711C15.4613 14.6806 15.4613 14.0474 15.0708 13.6569L9.41392 8.00008L15.0708 2.34323C15.4613 1.9527 15.4613 1.31954 15.0708 0.929014C14.6802 0.538489 14.0471 0.53849 13.6566 0.929014L7.99971 6.58586L2.34285 0.929002C1.95232 0.538477 1.31916 0.538477 0.928636 0.929002C0.538111 1.31953 0.538111 1.95269 0.928635 2.34322L6.5855 8.00008L0.928636 13.6569C0.538111 14.0475 0.538111 14.6806 0.928636 15.0711C1.31916 15.4617 1.95232 15.4617 2.34285 15.0711L7.99971 9.41429Z" fill="#EA4335"/>
</svg>
