<svg width="48" height="48" viewBox="0 0 48 48" fill="none" xmlns="http://www.w3.org/2000/svg">
<g clip-path="url(#clip0_850_1572)">
<path d="M23.9761 47.9523C17.5716 47.9523 11.5512 45.4581 7.02269 40.9296C2.49422 36.4011 0 30.3807 0 23.9761C0 17.5716 2.49422 11.5512 7.02269 7.02269C11.5512 2.49422 17.5716 0 23.9761 0C30.3807 0 36.4011 2.49422 40.9296 7.02269C45.4581 11.5512 47.9523 17.5716 47.9523 23.9761C47.9523 30.3807 45.4581 36.4011 40.9296 40.9296C36.4011 45.4581 30.3807 47.9523 23.9761 47.9523ZM23.9761 1.84104C18.0637 1.84104 12.5049 4.1438 8.32437 8.32437C4.1438 12.5049 1.84104 18.0637 1.84104 23.9761C1.84104 29.8886 4.1438 35.4474 8.32437 39.6285C12.5049 43.8091 18.0637 46.1112 23.9761 46.1112C29.8886 46.1112 35.4474 43.8084 39.6285 39.6279C43.8091 35.4474 46.1112 29.8886 46.1112 23.9761C46.1112 18.0637 43.8084 12.5049 39.6279 8.32437C35.4474 4.14322 29.8886 1.84104 23.9761 1.84104Z" fill="white"/>
<path d="M12.1526 12.8924L11.8683 11.8849C12.438 11.8458 13.1163 11.5832 13.6194 11.1605C14.195 10.6779 14.2673 10.2897 14.0514 10.0322C13.3924 9.24714 11.4065 11.8336 10.0984 10.2756C9.49956 9.56231 9.57719 8.48655 10.7697 7.48548C11.2968 7.04303 11.9418 6.71614 12.5378 6.63501L12.8566 7.62382C12.2809 7.72889 11.7889 7.95829 11.417 8.27C10.8421 8.75273 10.8012 9.15492 11.0224 9.41817C11.6715 10.191 13.6626 7.61098 14.955 9.15082C15.5433 9.85184 15.4652 10.9393 14.2668 11.945C13.6025 12.5025 12.7654 12.8685 12.1526 12.8924Z" fill="white"/>
<path d="M15.4821 7.88611L14.4062 5.01422L15.593 4.56944L16.6524 7.39754C17.0172 8.37176 17.5933 8.61575 18.3113 8.34666C19.0369 8.07523 19.3031 7.51545 18.9383 6.54122L17.8788 3.71313L19.0509 3.27417L20.1266 6.14605C20.6918 7.65554 20.1401 8.81422 18.682 9.36058C17.2251 9.90689 16.0477 9.3956 15.4821 7.88611Z" fill="white"/>
<path d="M26.5439 4.81624C26.542 6.0368 25.6257 6.79445 24.1628 6.79212L23.0596 6.79037L23.0573 8.30044L21.79 8.29869L21.7976 2.82227L24.1681 2.82577C25.6309 2.82752 26.5456 3.5881 26.5439 4.81624ZM25.2608 4.81449C25.2614 4.2121 24.8709 3.85953 24.0963 3.85836L23.0637 3.8572L23.0608 5.75836L24.0934 5.75952C24.868 5.7607 25.2596 5.40871 25.2608 4.81449Z" fill="white"/>
<path d="M31.3561 8.89595L31.0258 9.85796L27.0156 8.48034L28.7942 3.30103L32.7081 4.64532L32.3777 5.60729L29.6552 4.67276L29.2689 5.79758L31.6732 6.62354L31.3533 7.55573L28.9489 6.72977L28.5374 7.92873L31.3561 8.89595Z" fill="white"/>
<path d="M34.3075 12.3025L34.4149 10.4497L34.3653 10.4112L33.4961 9.73175L32.5564 10.9342L31.5576 10.1538L34.9297 5.83838L36.7976 7.29825C37.9504 8.19892 38.2043 9.36052 37.4485 10.3289C36.9424 10.9762 36.2448 11.1957 35.4959 10.9979L35.3798 13.1413L34.3075 12.3025ZM36.1065 8.06817L35.2927 7.4325L34.1172 8.93675L34.9309 9.57239C35.5414 10.0493 36.0709 10.0067 36.4375 9.53797C36.8081 9.06341 36.7171 8.54506 36.1065 8.06817Z" fill="white"/>
<path d="M20.5916 43.3305C20.3172 44.2365 19.44 44.5429 18.0624 44.126L15.3516 43.3059L16.9376 38.0642L19.4983 38.8394C20.8088 39.2363 21.3171 39.9864 21.0702 40.8024C20.9115 41.3266 20.5198 41.6494 20.0248 41.7451C20.5525 42.1088 20.7906 42.6714 20.5916 43.3305ZM19.4095 42.8338C19.5432 42.3918 19.2694 42.0802 18.6409 41.8899L17.2253 41.4614L16.8331 42.7567L18.2485 43.1851C18.8778 43.376 19.2735 43.2832 19.4095 42.8338ZM17.8668 39.3426L17.4932 40.5782L18.6986 40.9431C19.2899 41.1223 19.6758 41.0102 19.8001 40.5981C19.9244 40.186 19.664 39.8866 19.0722 39.7079L17.8668 39.3426Z" fill="white"/>
<path d="M21.3186 42.2395C21.2731 40.6126 22.5059 39.3728 24.2337 39.3245C25.9539 39.276 27.2626 40.437 27.3081 42.0708C27.3542 43.7052 26.1133 44.9374 24.3931 44.9859C22.6653 45.0349 21.3647 43.8663 21.3186 42.2395ZM26.0262 42.1076C25.9971 41.0674 25.2417 40.3768 24.2646 40.4043C23.2869 40.4317 22.5719 41.1637 22.6011 42.2039C22.6303 43.244 23.3856 43.9347 24.3626 43.9072C25.3404 43.8798 26.0554 43.1472 26.0262 42.1076Z" fill="white"/>
<path d="M27.1367 39.164L28.3409 38.7688L29.7272 42.9902L32.3359 42.1339L32.6581 43.1151L28.8453 44.3666L27.1367 39.164Z" fill="white"/>
<path d="M38.525 37.2061L37.1445 35.9884C39.9756 32.7803 41.5341 28.6541 41.5341 24.3707C41.5341 21.1329 40.6462 17.9686 38.9663 15.221L40.5371 14.2607C42.3933 17.2972 43.3751 20.7931 43.3751 24.3701C43.3751 29.103 41.6526 33.6611 38.525 37.2061Z" fill="white"/>
<path d="M9.45309 36.8522C6.30219 33.301 4.56738 28.7281 4.56738 23.9761C4.56738 20.4475 5.52409 16.9918 7.3342 13.9834L8.91139 14.9325C7.27407 17.6544 6.40842 20.7814 6.40842 23.9761C6.40842 28.2775 7.97862 32.4165 10.8306 35.6305L9.45309 36.8522Z" fill="white"/>
<path fill-rule="evenodd" clip-rule="evenodd" d="M26.9763 35.8635C26.8508 36.3667 26.5596 36.8063 26.2105 37.2744C24.4359 37.575 22.5734 37.5248 20.7171 37.0631C19.2701 36.7029 17.9357 36.1192 16.742 35.3592C16.734 35.2943 16.7255 35.2268 16.7165 35.1567V35.1566V35.1564C16.695 34.9863 16.6714 34.8002 16.6486 34.5957C16.515 33.3898 16.954 33.0214 17.7513 32.785C17.9445 32.728 18.2907 32.6198 18.708 32.4892C20.0126 32.0813 22.0112 31.4561 22.1974 31.5026C22.3407 31.5383 22.4316 31.6054 22.6304 31.752C22.7727 31.857 22.9703 32.0028 23.2819 32.2071C24.0291 32.6969 27.1497 35.1683 26.9763 35.8635ZM36.6374 25.3234C36.8271 25.5715 37.0548 25.8481 37.2929 26.1021C37.2322 26.4791 37.1563 26.8562 37.0623 27.2333C36.3274 30.1851 34.6656 32.6671 32.4645 34.4475C32.3926 34.4311 32.3214 34.4136 32.2508 34.396C32.1142 34.3621 31.9714 34.3354 31.828 34.3084C31.0694 34.1664 30.2913 34.0206 30.307 32.7827C30.3129 32.3133 30.3063 31.6817 30.2994 31.0305V31.0304C30.2847 29.6395 30.269 28.159 30.3735 27.9781C30.5265 27.7108 34.6954 25.1004 35.39 24.752C35.995 24.449 36.1195 24.6192 36.4663 25.0931L36.4664 25.0933C36.5177 25.1635 36.574 25.2404 36.6374 25.3234ZM30.101 11.9679L30.1115 11.9651C33.0861 13.4845 35.341 16.0417 36.5277 19.0566C36.1658 19.6309 35.7583 20.2643 35.5085 20.6111C35.0475 21.2504 33.8999 20.7042 32.9159 20.2359C32.7663 20.1646 32.6205 20.0952 32.4813 20.032C32.1085 19.8625 31.7294 19.7402 31.3607 19.6213C30.6871 19.4041 30.0483 19.1981 29.5458 18.7355C28.7678 18.0217 27.9254 13.9024 28.1292 13.0846C28.2998 12.3987 29.0444 12.2226 29.7201 12.0628C29.8513 12.0318 29.9797 12.0013 30.101 11.9679ZM14.4495 15.5695C14.458 15.217 14.4675 14.8239 14.4206 14.4657C16.7304 12.1524 19.841 10.7171 23.1629 10.5133C23.195 10.549 23.2281 10.5859 23.2622 10.6236C23.8273 11.2506 24.6291 12.1403 24.5101 12.6176C24.4088 13.0257 23.6189 13.956 22.8915 14.8129L22.8913 14.813C22.5261 15.2433 22.1765 15.655 21.9377 15.9728C21.2226 16.9255 20.7224 17.1911 19.2497 16.9984C18.7848 16.9378 18.148 16.925 17.4906 16.9118C16.065 16.8833 14.5422 16.8529 14.4644 16.3283C14.4358 16.1345 14.4423 15.8664 14.4495 15.5695ZM12.7809 30.592C12.5609 30.5488 12.353 30.5039 12.1587 30.4589C10.5821 27.5876 10.0381 24.1396 10.8897 20.7184C10.8926 20.7074 10.8956 20.6964 10.8984 20.6854C10.9014 20.6745 10.9042 20.6636 10.9072 20.6525C11.5651 20.3665 12.2305 20.0757 12.4739 19.9602C12.9334 19.7431 13.0769 19.9157 13.3778 20.2779C13.432 20.3431 13.4913 20.4145 13.5585 20.4908C13.9986 20.9916 16.1886 23.5349 16.3019 24.4752C16.3756 25.0868 15.7408 26.4041 15.2151 27.4952C14.9324 28.0817 14.6814 28.6028 14.5887 28.9138C14.5436 29.0654 14.5094 29.2234 14.4756 29.3798C14.3111 30.1412 14.1554 30.8623 12.7809 30.592ZM38.2099 26.8603C38.1673 27.0687 38.1218 27.2765 38.0699 27.4843C37.3507 30.3737 35.8068 32.8446 33.7533 34.7112L33.7964 34.7189C31.5672 36.7531 28.7333 38.0729 25.6944 38.4365C25.6863 38.4249 25.6787 38.4138 25.6723 38.4015C23.9772 38.603 22.2191 38.5072 20.4673 38.0712C19.1236 37.7367 17.8698 37.223 16.7257 36.5634L16.7141 36.5926C14.078 35.0708 12.0232 32.7716 10.7788 30.0772L10.8074 30.0866C9.54946 27.3816 9.11111 24.2774 9.72753 21.1632L9.71589 21.1679C9.76083 20.9396 9.81036 20.7115 9.86704 20.4838C10.3795 18.425 11.3117 16.5799 12.5487 15.0132L12.6017 14.9467C12.6438 14.8941 12.6864 14.8416 12.729 14.7896C16.1776 10.5811 21.8635 8.48317 27.4842 9.88237C27.5087 9.88828 27.5332 9.89487 27.5577 9.90145C27.5741 9.90584 27.5904 9.91023 27.6067 9.91443C27.6482 9.92493 27.6902 9.936 27.7316 9.94716C27.8064 9.96701 27.8805 9.98743 27.9546 10.0084C28.0019 10.0219 28.0492 10.0352 28.0959 10.0493C28.173 10.0721 28.2494 10.0954 28.3253 10.1193L28.4268 10.1515C29.3334 10.4427 30.1932 10.8169 31.0011 11.2634L31.0635 11.2978C33.8035 12.8307 35.9323 15.1982 37.1977 17.9808L37.2042 17.9703C38.4394 20.6735 38.8613 23.7684 38.2333 26.8714L38.2099 26.8603ZM27.7092 21.4814C27.5572 21.307 27.2826 21.4407 26.9073 21.6235C26.7796 21.6857 26.6399 21.7536 26.4896 21.817C25.8979 22.0665 25.4109 22.3477 25.4109 22.3477L25.396 22.3511L25.3579 22.3731C25.084 22.6234 24.6673 23.306 25.192 24.035C25.7167 24.7639 26.3456 24.6587 26.5945 24.515C26.6943 24.3357 26.7682 23.964 26.3832 23.757L26.3763 23.7658C25.9696 23.5861 25.4528 23.5159 25.2506 23.5405C25.4481 22.7795 26.0995 22.2909 26.671 22.2107C27.1467 22.1038 27.9129 22.1233 28.5423 23.3905C29.1802 25.095 27.9662 26.4408 27.2172 26.643C26.4682 26.8451 25.2252 26.6414 24.9859 26.2268C25.2252 26.6414 24.8901 27.7101 24.5228 28.1985C24.1555 28.687 22.2254 29.617 20.9684 28.0396C19.9628 26.7777 20.4624 25.8137 20.8378 25.4894C20.9028 25.4428 20.9837 25.3945 21.0741 25.3533C21.4497 25.1273 21.9558 25.0222 22.4674 25.1671C22.3849 25.2778 22.2676 25.5412 22.1896 25.8371C22.1016 26.3417 22.3128 26.8118 22.6666 26.7828C23.0385 26.7523 23.5031 26.2076 22.9846 25.3095C22.5729 24.5963 21.8514 24.5278 21.5346 24.5833L21.5292 24.5891C21.5292 24.5891 21.0405 24.8713 20.5263 25.2602C20.3956 25.3591 20.2665 25.4462 20.1483 25.5261C19.8009 25.7605 19.5468 25.932 19.6216 26.1509C19.2816 25.8605 18.8489 24.3888 20.1768 23.7367L20.1814 23.7232C19.515 22.5457 21.099 20.5821 21.6283 20.2941L21.6282 20.294C22.0911 19.9779 24.6484 19.5637 25.3375 20.7572C26.6094 19.9514 27.6269 21.0408 27.7092 21.4814Z" fill="white"/>
<path d="M23.9764 38.6566C20.055 38.6566 16.3682 37.1295 13.5956 34.3569C10.8229 31.5843 9.2959 27.8975 9.2959 23.9761C9.2959 20.0547 10.8229 16.368 13.5956 13.5953C16.3682 10.8227 20.055 9.29565 23.9764 9.29565C27.8978 9.29565 31.5845 10.8227 34.3571 13.5953C37.1298 16.368 38.6568 20.0547 38.6568 23.9761C38.6568 27.8975 37.1298 31.5843 34.3571 34.3569C31.5845 37.1295 27.8978 38.6566 23.9764 38.6566ZM23.9764 10.4631C20.3667 10.4631 16.9735 11.8687 14.4209 14.4207C11.8689 16.9727 10.4633 20.3665 10.4633 23.9761C10.4633 27.5858 11.8689 30.979 14.4209 33.5315C16.9729 36.0841 20.3667 37.4891 23.9764 37.4891C27.5861 37.4891 30.9792 36.0836 33.5318 33.5315C36.0844 30.9795 37.4894 27.5858 37.4894 23.9761C37.4894 20.3665 36.0838 16.9733 33.5318 14.4212C30.9792 11.8687 27.5861 10.4631 23.9764 10.4631Z" fill="white"/>
</g>
<defs>
<clipPath id="clip0_850_1572">
<rect width="48" height="48" fill="white"/>
</clipPath>
</defs>
</svg>
