<svg width="24" height="25" viewBox="0 0 24 25" fill="none" xmlns="http://www.w3.org/2000/svg">
<path d="M12.1504 17V19.1" stroke="#9E9D9B" stroke-width="1.5" stroke-linecap="round" stroke-linejoin="round"/>
<path d="M7.15039 22.5H17.1504V21.5C17.1504 20.4 16.2504 19.5 15.1504 19.5H9.15039C8.05039 19.5 7.15039 20.4 7.15039 21.5V22.5V22.5Z" stroke="#9E9D9B" stroke-width="1.5" stroke-miterlimit="10"/>
<path d="M6.15039 22.5H18.1504" stroke="#9E9D9B" stroke-width="1.5" stroke-linecap="round" stroke-linejoin="round"/>
<path d="M12 16.5C8.13 16.5 5 13.37 5 9.5V6.5C5 4.29 6.79 2.5 9 2.5H15C17.21 2.5 19 4.29 19 6.5V9.5C19 13.37 15.87 16.5 12 16.5Z" stroke="#9E9D9B" stroke-width="1.5" stroke-linecap="round" stroke-linejoin="round"/>
<path d="M5.46906 12.1501C4.71906 11.9101 4.05906 11.4701 3.53906 10.9501C2.63906 9.9501 2.03906 8.7501 2.03906 7.3501C2.03906 5.9501 3.13906 4.8501 4.53906 4.8501H5.18906C4.98906 5.3101 4.88906 5.8201 4.88906 6.3501V9.3501C4.88906 10.3501 5.09906 11.2901 5.46906 12.1501Z" stroke="#9E9D9B" stroke-width="1.5" stroke-linecap="round" stroke-linejoin="round"/>
<path d="M18.5293 12.1501C19.2793 11.9101 19.9393 11.4701 20.4593 10.9501C21.3593 9.9501 21.9593 8.7501 21.9593 7.3501C21.9593 5.9501 20.8593 4.8501 19.4593 4.8501H18.8093C19.0093 5.3101 19.1093 5.8201 19.1093 6.3501V9.3501C19.1093 10.3501 18.8993 11.2901 18.5293 12.1501Z" stroke="#9E9D9B" stroke-width="1.5" stroke-linecap="round" stroke-linejoin="round"/>
</svg>
