<svg width="52" height="52" viewBox="0 0 52 52" fill="none" xmlns="http://www.w3.org/2000/svg">
<rect width="52" height="52" rx="25" fill="#47A3C4" fill-opacity="0.25"/>
<path d="M38.4464 13.4623C38.3258 13.3582 38.1791 13.2889 38.022 13.262C37.865 13.2352 37.7035 13.2517 37.5552 13.3098L12.2227 23.2236C11.9146 23.3442 11.6539 23.5614 11.4798 23.8428C11.3056 24.1241 11.2275 24.4544 11.2571 24.7839C11.2867 25.1135 11.4224 25.4245 11.6438 25.6704C11.8653 25.9162 12.1605 26.0836 12.4852 26.1473L19.2502 27.4761V34.9998C19.2503 35.3486 19.3547 35.6894 19.5499 35.9785C19.7451 36.2676 20.0222 36.4917 20.3457 36.6222C20.6692 36.7526 21.0243 36.7834 21.3654 36.7106C21.7065 36.6378 22.0181 36.4647 22.2602 36.2136L25.5902 32.7598L30.7877 37.3161C31.105 37.5969 31.514 37.752 31.9377 37.7523C32.1227 37.7519 32.3066 37.7228 32.4827 37.6661C32.7714 37.5747 33.0312 37.4093 33.236 37.1862C33.4409 36.9632 33.5837 36.6903 33.6502 36.3948L38.7277 14.3211C38.7634 14.1659 38.756 14.0039 38.7065 13.8526C38.6569 13.7013 38.567 13.5663 38.4464 13.4623ZM12.7564 24.6711C12.7516 24.6582 12.7516 24.644 12.7564 24.6311C12.7621 24.6267 12.7684 24.6234 12.7752 24.6211L32.7389 16.8061L19.8264 26.0561L12.7752 24.6761L12.7564 24.6711ZM21.1802 35.1711C21.1457 35.2068 21.1014 35.2315 21.0529 35.242C21.0043 35.2525 20.9538 35.2482 20.9077 35.2299C20.8615 35.2115 20.8219 35.1798 20.7939 35.1388C20.7658 35.0979 20.7506 35.0495 20.7502 34.9998V28.5136L24.4614 31.7636L21.1802 35.1711ZM32.1889 36.0561C32.1797 36.0984 32.1593 36.1374 32.1298 36.169C32.1004 36.2007 32.0629 36.2239 32.0214 36.2361C31.9791 36.251 31.9336 36.2542 31.8896 36.2454C31.8456 36.2366 31.8048 36.2161 31.7714 36.1861L21.2052 26.9173L36.8752 15.6873L32.1889 36.0561Z" fill="#47A3C4"/>
</svg>
