<svg width="46" height="46" viewBox="0 0 46 46" fill="none" xmlns="http://www.w3.org/2000/svg">
<rect x="0.502441" width="45.4977" height="45.5" rx="22.7489" fill="#47A3C4" fill-opacity="0.25"/>
<path d="M30.5901 25.0788L26.5901 23.0788C26.472 23.02 26.3404 22.9934 26.2087 23.0018C26.0771 23.0101 25.9499 23.0531 25.8401 23.1262L23.8801 24.4325C22.8879 23.9245 22.0806 23.1173 21.5726 22.125L22.8801 20.1663C22.9533 20.0565 22.9962 19.9293 23.0046 19.7976C23.0129 19.6659 22.9864 19.5344 22.9276 19.4163L20.9276 15.4163C20.8654 15.2911 20.7695 15.1858 20.6507 15.1123C20.5319 15.0387 20.3949 14.9998 20.2551 15C18.9953 15 17.7872 15.5004 16.8964 16.3912C16.0056 17.282 15.5051 18.4902 15.5051 19.75C15.5084 22.6001 16.6421 25.3324 18.6574 27.3477C20.6727 29.363 23.4051 30.4967 26.2551 30.5C27.5149 30.5 28.7231 29.9996 29.6139 29.1088C30.5047 28.218 31.0051 27.0098 31.0051 25.75C31.0052 25.6106 30.9664 25.4739 30.893 25.3554C30.8197 25.2368 30.7148 25.141 30.5901 25.0788ZM26.2551 29C23.8028 28.997 21.4517 28.0215 19.7177 26.2874C17.9836 24.5534 17.0081 22.2023 17.0051 19.75C17.0052 18.9656 17.2889 18.2077 17.804 17.6162C18.3191 17.0246 19.0307 16.6393 19.8076 16.5313L21.3901 19.6962L20.0914 21.6438C20.0231 21.7465 19.9813 21.8644 19.9695 21.9872C19.9577 22.1099 19.9764 22.2337 20.0239 22.3475C20.7135 23.9872 22.0179 25.2916 23.6576 25.9813C23.7714 26.0287 23.8952 26.0474 24.0179 26.0356C24.1407 26.0238 24.2587 25.982 24.3614 25.9137L26.3089 24.615L29.4739 26.1975C29.3659 26.9744 28.9805 27.686 28.389 28.2011C27.7974 28.7162 27.0395 28.9999 26.2551 29ZM23.2551 10C21.0449 9.99954 18.8724 10.5737 16.951 11.666C15.0295 12.7584 13.4251 14.3316 12.295 16.2311C11.1649 18.1306 10.548 20.2913 10.5049 22.5011C10.4617 24.711 10.9938 26.8941 12.0489 28.8363L10.5964 33.195C10.4935 33.5033 10.4786 33.8342 10.5533 34.1506C10.6279 34.4669 10.7892 34.7562 11.019 34.9861C11.2489 35.2159 11.5382 35.3772 11.8545 35.4518C12.1709 35.5265 12.5018 35.5116 12.8101 35.4088L17.1689 33.9562C18.8751 34.8822 20.7702 35.4063 22.7098 35.4885C24.6493 35.5708 26.582 35.2091 28.3605 34.431C30.139 33.653 31.7164 32.479 32.9723 30.9988C34.2283 29.5185 35.1296 27.771 35.6076 25.8895C36.0856 24.008 36.1277 22.0422 35.7306 20.1419C35.3335 18.2417 34.5077 16.4573 33.3163 14.9246C32.1248 13.392 30.5991 12.1517 28.8555 11.2982C27.1119 10.4448 25.1964 10.0008 23.2551 10ZM23.2551 34C21.2775 34.0005 19.3348 33.4796 17.6226 32.49C17.5085 32.4244 17.3793 32.3895 17.2476 32.3888C17.1669 32.3892 17.0868 32.4023 17.0101 32.4275L12.3364 33.985C12.2923 33.9997 12.245 34.0018 12.1999 33.9912C12.1547 33.9805 12.1133 33.9575 12.0805 33.9246C12.0477 33.8918 12.0246 33.8505 12.014 33.8053C12.0033 33.7601 12.0054 33.7128 12.0201 33.6688L13.5776 29C13.6113 28.8991 13.6232 28.7922 13.6124 28.6864C13.6016 28.5806 13.5685 28.4783 13.5151 28.3862C12.2742 26.2426 11.7754 23.7494 12.0961 21.2933C12.4168 18.8373 13.5391 16.5557 15.2889 14.8026C17.0387 13.0495 19.3181 11.9229 21.7735 11.5975C24.229 11.2721 26.7232 11.7662 28.8692 13.003C31.0151 14.2399 32.693 16.1504 33.6423 18.4382C34.5916 20.7259 34.7594 23.263 34.1196 25.6559C33.4798 28.0487 32.0682 30.1636 30.1038 31.6723C28.1394 33.181 25.732 33.9992 23.2551 34Z" fill="#47A3C4"/>
</svg>
